# xmcd
#
# Track frame offsets:
#	150
#	20182
#	31901
#	45268
#	56705
#	68008
#	82710
#	94692
#	109212
#	130354
#	145418
#
# Disc length: 2077 seconds
#
# Revision: 1
# Processed by: cddbd v1.5.1PL0 Copyright (c) Steve Scherf et al.
# Submitted via: audiograbber 1.83.01
#
DISCID=8f081b0b
DTITLE=Statler Brothers - Live and Sold OUt
DYEAR=1989
DGENRE=Country
TTITLE0=The Official Historian On Shirley Jean Berrell
TTITLE1=A Hurt I Can't Handle
TTITLE2=Bed of Roses
TTITLE3=Foggy Mountain Breakdown
TTITLE4=When The Roll Is Called Up Yonder
TTITLE5=I'll Fly Away, I'll Fly Away
TTITLE6=Walking Heartache In Disguise
TTITLE7=Tomorrow Never Comes
TTITLE8=Don't Wait On Me
TTITLE9=I'll Go To My Grave Loving You
TTITLE10=This Ole House
EXTD=
EXTT0=
EXTT1=
EXTT2=
EXTT3=
EXTT4=
EXTT5=
EXTT6=
EXTT7=
EXTT8=
EXTT9=
EXTT10=
PLAYORDER=
